<svg xmlns="http://www.w3.org/2000/svg" xmlns:xlink="http://www.w3.org/1999/xlink" viewBox="0 0 750 500"><defs><style>.cls-1{isolation:isolate;}.cls-2,.cls-8{fill:#fff;}.cls-3{fill:#2f1829;}.cls-4{fill:url(#linear-gradient);}.cls-5{opacity:0.45;fill:url(#linear-gradient-2);}.cls-11,.cls-13,.cls-14,.cls-27,.cls-30,.cls-39,.cls-5,.cls-8{mix-blend-mode:overlay;}.cls-21,.cls-35,.cls-6,.cls-7{mix-blend-mode:hard-light;}.cls-6{fill:url(#linear-gradient-3);}.cls-7{fill:url(#linear-gradient-4);}.cls-13,.cls-14,.cls-27,.cls-30,.cls-39,.cls-8{opacity:0.25;}.cls-9{fill:url(#linear-gradient-5);}.cls-10{fill:url(#linear-gradient-6);}.cls-12{fill:#f3475c;}.cls-15{fill:#ffca51;}.cls-16{fill:#982245;}.cls-17{fill:url(#linear-gradient-7);}.cls-18{fill:url(#linear-gradient-8);}.cls-19{fill:url(#linear-gradient-9);}.cls-20{fill:url(#linear-gradient-10);}.cls-21{fill:url(#linear-gradient-11);}.cls-22{fill:url(#linear-gradient-12);}.cls-23{fill:url(#linear-gradient-13);}.cls-24{fill:url(#linear-gradient-14);}.cls-25{fill:#2f172b;}.cls-26{fill:url(#linear-gradient-15);}.cls-27,.cls-28,.cls-29,.cls-30,.cls-39,.cls-40{fill:none;}.cls-27,.cls-28,.cls-29,.cls-30,.cls-39{stroke:#fff;stroke-width:0.46px;}.cls-27,.cls-28,.cls-29,.cls-30{stroke-linecap:round;stroke-linejoin:round;}.cls-29{stroke-dasharray:1.39 1.39;}.cls-30{stroke-dasharray:1.39;}.cls-31{fill:#4c3146;}.cls-32{fill:#1f3247;}.cls-33{fill:url(#linear-gradient-16);}.cls-34{fill:#122230;}.cls-35{fill:url(#linear-gradient-17);}.cls-36{fill:url(#linear-gradient-18);}.cls-37{fill:#f5b539;}.cls-38{fill:url(#linear-gradient-19);}.cls-39,.cls-40{stroke-miterlimit:10;}.cls-40{stroke:#1f3247;stroke-width:0.93px;}.cls-41{fill:#ffadae;}</style><linearGradient id="linear-gradient" x1="385.54" y1="338.47" x2="388.18" y2="134.91" gradientUnits="userSpaceOnUse"><stop offset="0" stop-color="#e8d197"/><stop offset="1" stop-color="#fef5da"/></linearGradient><linearGradient id="linear-gradient-2" x1="384.92" y1="235.9" x2="388.39" y2="330.08" gradientUnits="userSpaceOnUse"><stop offset="0"/><stop offset="1" stop-opacity="0"/></linearGradient><linearGradient id="linear-gradient-3" x1="402.3" y1="152.15" x2="402.96" y2="175.28" gradientUnits="userSpaceOnUse"><stop offset="0" stop-color="#fff"/><stop offset="1" stop-color="#fff" stop-opacity="0"/></linearGradient><linearGradient id="linear-gradient-4" x1="188.1" y1="114.12" x2="190.08" y2="165.01" xlink:href="#linear-gradient-3"/><linearGradient id="linear-gradient-5" x1="513.75" y1="317.21" x2="491.94" y2="129.35" xlink:href="#linear-gradient"/><linearGradient id="linear-gradient-6" x1="118.08" y1="518.47" x2="81.32" y2="201.87" xlink:href="#linear-gradient"/><linearGradient id="linear-gradient-7" x1="255.31" y1="330.74" x2="253.99" y2="236.45" gradientUnits="userSpaceOnUse"><stop offset="0" stop-color="#2f1829"/><stop offset="1" stop-color="#3b223c"/></linearGradient><linearGradient id="linear-gradient-8" x1="380.64" y1="328.98" x2="379.31" y2="234.69" xlink:href="#linear-gradient-7"/><linearGradient id="linear-gradient-9" x1="505.46" y1="327.23" x2="504.13" y2="232.94" xlink:href="#linear-gradient-7"/><linearGradient id="linear-gradient-10" x1="339.07" y1="161.4" x2="350.3" y2="197.09" xlink:href="#linear-gradient-7"/><linearGradient id="linear-gradient-11" x1="633.34" y1="324.54" x2="475.38" y2="214.17" xlink:href="#linear-gradient-3"/><linearGradient id="linear-gradient-12" x1="625.28" y1="334.76" x2="625.14" y2="327.05" gradientUnits="userSpaceOnUse"><stop offset="0" stop-color="#fecba6"/><stop offset="1" stop-color="#d17878"/></linearGradient><linearGradient id="linear-gradient-13" x1="587.73" y1="288.32" x2="612.29" y2="264.97" xlink:href="#linear-gradient-12"/><linearGradient id="linear-gradient-14" x1="626.69" y1="297.41" x2="627.02" y2="270.75" xlink:href="#linear-gradient-12"/><linearGradient id="linear-gradient-15" x1="610.34" y1="254.84" x2="616.04" y2="256.08" xlink:href="#linear-gradient-12"/><linearGradient id="linear-gradient-16" x1="608.46" y1="338.96" x2="610.88" y2="327.34" xlink:href="#linear-gradient-12"/><linearGradient id="linear-gradient-17" x1="-1610.24" y1="324.54" x2="-1768.19" y2="214.17" gradientTransform="matrix(-1, 0, 0, 1, -1476.69, 0)" xlink:href="#linear-gradient-3"/><linearGradient id="linear-gradient-18" x1="153.69" y1="251.84" x2="151.76" y2="262.47" xlink:href="#linear-gradient-12"/><linearGradient id="linear-gradient-19" x1="182.27" y1="278.96" x2="171.11" y2="282.14" xlink:href="#linear-gradient-12"/></defs><title>404Page2</title><g class="cls-1"><g id="BACKGROUND"><rect class="cls-2" width="750" height="500"/></g><g id="OBJECTS"><path class="cls-3" d="M159.28,343.15s9.82,17.42,80.54,25.35,106.4,34.37,151.34,42.3,100.46-44.28,148.71-36.35,106.4-22.28,111-31.3Z"/><path class="cls-4" d="M669.9,339.69H659.44l-460.62.09s-4.66-3.68-11.92-10c-3.11-2.71-6.7-5.9-10.62-9.5q-2.11-1.95-4.37-4.07c-13.72-12.9-30.32-30-43.8-48.11-14.2-19.12-25-39.47-25.26-57.5,0-.4,0-.81,0-1.21.15-17.44,3.59-36.25,12.08-53.71A105,105,0,0,1,135.34,127c22.85-22.76,59.82-38.7,117.2-38.24,66.92.53,136.32,25.48,199,60h0c13.11,7.22,25.92,14.86,38.36,22.78q13.8,8.79,26.94,18a788.56,788.56,0,0,1,66.69,52.15C628.62,281.12,660.28,318.41,669.9,339.69Z"/><path class="cls-5" d="M669.9,339.69H659.44l-460.62.09s-4.66-3.68-11.92-10c-3.11-2.71-6.7-5.9-10.62-9.5q-2.11-1.95-4.37-4.07c-13.72-12.9-30.32-30-43.8-48.11-14.2-19.12-25-39.47-25.26-57.5,5.73-3,19.14-9.12,30.23-6.34,14.54,3.63,17.65,20.91,17.65,20.91s10.42-8.4,21.33-4.41,12.57,15.55,12.57,15.55,12.87-6.64,24.45-3.81,20.87,14,8.46,21.32-26.15,1.64-26.48,1.51c.17.22,5,6.76-3.79,14.81-9,8.18,25.47,15.28,25.47,15.28S214,263,237.18,265.51s41.78,15,41.78,15,1.17-34.31,19.68-40.58,28,13.87,28,13.87,41-26.54,54.92-1.8,14.49,29.43,14.49,29.43,11.86-65,49.08-62,44.13,28.78,43.48,31.41,10.69-16.68,21.88-6.2,17.68,25.11,17.68,25.11l58.89-7s-6-11.62-3.56-21.15C628.62,281.12,660.28,318.41,669.9,339.69Z"/><path class="cls-6" d="M489.89,171.55H315.82c21.81,0,26.11-7.93,39-12.22.62-.21,1.23-.39,1.84-.54,12-3,22,3.82,29.71,3.51,8.1-.33,17-8.92,26.27-11.9,3.15-1,6.4-.68,9.74.11,6.5,1.53,13.31,4.84,20.24,3.53,6-1.14,6.48-3.58,8.9-5.27h0C464.64,156,477.45,163.63,489.89,171.55Z"/><path class="cls-7" d="M264.51,155.69H114.93a105.15,105.15,0,0,1,20-28.26l.41-.41a71.42,71.42,0,0,1,11.36-1.4c23.73-1,28.75,16.85,28.75,16.85s6.21-8.26,17.44-4.29,7.28,8.92,16.2,11.56a9.84,9.84,0,0,0,3.65.32c8.5-.74,19.24-10.05,28.73-6.6C252.38,147.43,245.26,155.69,264.51,155.69Z"/><path class="cls-3" d="M689.82,346.52H133.48a3.37,3.37,0,0,1-3.37-3.37h0a3.37,3.37,0,0,1,3.37-3.37H689.82a3.37,3.37,0,0,1,3.37,3.37h0A3.37,3.37,0,0,1,689.82,346.52Z"/><path class="cls-8" d="M422.38,150.51c-9.92,2.54-21.1,13.3-28.35,14.88-9.14,2-19.72-2.65-30-5.23a51.08,51.08,0,0,0-7.41-1.37c12-3,22,3.82,29.71,3.51,8.1-.33,17-8.92,26.27-11.9C415.79,149.39,419,149.72,422.38,150.51Z"/><path class="cls-8" d="M212.74,150.06c-8.93,4.66-13.06-5.95-20.84-9.43-8.92-4-15.2,8.45-17.84,6.3s-3.8-11.4-13.88-16.19c-5.72-2.72-16.77-3.31-25.25-3.31l.41-.41a71.42,71.42,0,0,1,11.36-1.4c23.73-1,28.75,16.85,28.75,16.85s6.21-8.26,17.44-4.29,7.28,8.92,16.2,11.56A9.84,9.84,0,0,0,212.74,150.06Z"/><path class="cls-9" d="M452.93,128.35s62.46,55.76,87.24,48.16S409.23,95.18,452.93,128.35Z"/><path class="cls-10" d="M93,185S71.76,222.4,108.9,261.82c8.59,9.12,9.59,26.07-7.6,27s-43.95-41-43-74.73S98.75,165.14,93,185Z"/><path class="cls-3" d="M519,383.7s-36,7.93-45.21,20.16c-4.53,6,13.44,5.08,28.73-1.49C518.46,395.51,531.62,382.86,519,383.7Z"/><path class="cls-3" d="M258.16,381.39s14-.33,26.33,4.46,15,19.49,2.75,21.31-40.07-14.48-38.5-21.15C249.9,381.11,258.16,381.39,258.16,381.39Z"/><path class="cls-11" d="M194.3,301.66l-7.91,27.43c-3.12-2.71-6.71-5.9-10.62-9.5l-1.72-3.19s3-35.17-6.93-49.26c9.52,6.65,14.07,33.25,14.07,33.25l-1.48,2h1.48a37.08,37.08,0,0,1,3.27,11.14c6.09-31.64.17-46.94,0-47.35a47.63,47.63,0,0,1,7.81,15.66c2.92,9.78,1.83,15.94,1.83,15.94l-2.37,3.9Z"/><path class="cls-12" d="M434.1,328.64a41,41,0,0,0,4.49-4.78q.51-.66.93-1.32l1.17,1.43-.4-2.25s8.06-2.82,11-10.58c-1.77,8.55-5.18,14.87-9.19,17.83a8.54,8.54,0,0,1-5.53,1.83C430.29,330.46,434.1,328.64,434.1,328.64Z"/><g class="cls-13"><path class="cls-2" d="M451.25,311.13a49.78,49.78,0,0,1-2.49,6.48,39.19,39.19,0,0,1-3.44,6,20.17,20.17,0,0,1-4.84,5,10.58,10.58,0,0,1-6.65,2,.25.25,0,0,1-.22-.25.24.24,0,0,1,.25-.22h0a10.18,10.18,0,0,0,6.43-1.83,20.09,20.09,0,0,0,4.84-4.85,39.26,39.26,0,0,0,3.53-6A50.5,50.5,0,0,0,451.25,311.13Z"/></g><path class="cls-14" d="M434.1,328.64a41,41,0,0,0,4.49-4.78,13,13,0,0,0,3.47,5.11,8.54,8.54,0,0,1-5.53,1.83C430.29,330.46,434.1,328.64,434.1,328.64Z"/><path class="cls-11" d="M371.48,313.19s-18.63-17.45-15.62-40.81c1.92,10.82,9.79,23.73,9.79,23.73l-1,2.91,3.5-.68s4.41-26.65-5.51-39.47c13.38,13.78,13.22,34.3,13.22,34.3L373.36,297l2.52,1.1s-2.93,10,5.78,6.14,14.22-36.91,6.35-45.32c9.44,8.11,7.87,36,7.87,36.93s-4.09,4.67-4.09,4.67l3.14,2.26S393,321.61,371.48,313.19Z"/><path class="cls-11" d="M456.79,338s-6.47-6.06-5.42-14.18a29.29,29.29,0,0,0,3.4,8.25l-.34,1,1.21-.24s1.53-9.26-1.91-13.71c4.65,4.79,4.59,11.92,4.59,11.92l-.87,1.31.87.38s-1,3.46,2,2.13,4.94-12.82,2.21-15.74c3.28,2.82,2.73,12.5,2.73,12.83s-1.42,1.62-1.42,1.62l1.09.79S464.25,341,456.79,338Z"/><path class="cls-15" d="M432.05,329.13l-5.26.36c3.79-3.4,3.23-6.67,2.66-8.16a5.06,5.06,0,0,0-.41-.86l2.48-.4-1.39-1.89s4.5-5.2,6.19-19.05a23.57,23.57,0,0,1,.44,23.24A28.37,28.37,0,0,1,432.05,329.13Z"/><g class="cls-13"><path class="cls-2" d="M436.32,299.13a49,49,0,0,1,1,7.81,45.16,45.16,0,0,1-.26,7.88,33.13,33.13,0,0,1-2,7.64,23.9,23.9,0,0,1-4.26,6.67.23.23,0,1,1-.34-.31h0a23.59,23.59,0,0,0,4.27-6.48,32.89,32.89,0,0,0,2.05-7.54,45.79,45.79,0,0,0,.37-7.85A47.8,47.8,0,0,0,436.32,299.13Z"/></g><path class="cls-14" d="M432.05,329.13l-5.26.36c3.79-3.4,3.23-6.67,2.66-8.16a9.51,9.51,0,0,0,7.31,1A28.37,28.37,0,0,1,432.05,329.13Z"/><path class="cls-16" d="M466.32,339.08H381.06L394.72,328s18.2-9.36,25.79-7.41,6.37,8.34,6.37,8.34a10.17,10.17,0,0,1,1.24-1.11c1.68-1.31,4.88-3.1,8.13-1.17,4.62,2.76,3.89,6.39,3.86,6.57.15-.15,2.92-2.84,5.17-2a6.14,6.14,0,0,1,3.21,3.42s3-4.15,5.49-2.63a12,12,0,0,1,4,4.61S462,332.61,466.32,339.08Z"/><path class="cls-14" d="M449.87,339.08H381.06L394.72,328s18.2-9.36,25.79-7.41,6.37,8.34,6.37,8.34a10.17,10.17,0,0,1,1.24-1.11,16.49,16.49,0,0,1,0,4.21s3.85-1.45,6.39.64,1.76,4,1.76,4a8,8,0,0,1,7.27,0A54.93,54.93,0,0,0,449.87,339.08Z"/><path class="cls-17" d="M295.34,279.06V185.5H259.79v.32L217,254.64,198.3,284.75l2.11,21.73h59.38v32.6h35.55v-32.6H311V279.06Zm-35.55,0H232.16l25.42-43.67,2.21-3.58Z"/><path class="cls-18" d="M419.17,198.27q-14-17-39.55-17t-39.5,16.88q-14,16.88-14,48v28.06q0,30.9,14,47.89t39.66,17q25.43,0,39.4-16.88t14-48V246.26Q433.2,215.24,419.17,198.27Zm-57.38,41q.31-15.39,4.49-23t13.34-7.6q9.38,0,13.71,8.18t4.32,24.74v38q-.11,16.56-4.42,24.31t-13.4,7.75q-9.39,0-13.71-8-4.08-7.51-4.31-23.23c0-.63,0-1.28,0-1.93Z"/><path class="cls-19" d="M545.53,279.06V185.5H510v.32l-61.5,98.93,2.11,21.73H510v32.6h35.54v-32.6h15.62V279.06Zm-35.54,0H482.35l25.42-43.67,2.22-3.58Z"/><path class="cls-8" d="M288.73,185.5c-4.76,6.08-21.07,3.91-24.74,4.3-4.16.44-33.06,51.33-37,57.79-2.58,4.19-7.1,6.17-9.95,7l42.77-68.82v-.32Z"/><path class="cls-8" d="M545.53,185.5v70.84c-9.1-7.55-4.08-63.37-5.52-65.22s-20.49-.66-24-1.76a12.2,12.2,0,0,1-5.23-3.86Z"/><path class="cls-14" d="M387.12,320.44c-28.64,1.32-25.33-40-25.33-40l0,0q.22,15.72,4.31,23.23,4.32,8,13.71,8,9.06,0,13.4-7.75t4.42-24.31v-38q0-16.58-4.32-24.74t-13.71-8.18s17.72-2.16,24.95,24.06S415.76,319.12,387.12,320.44Z"/><path class="cls-20" d="M349.45,198.15s-11.9-8.6-13.22-22c8.59,2.42,13.22,12.85,13.22,12.85s-2.2-9.58,0-16.12C355.84,182.06,354.08,189.55,349.45,198.15Z"/><path class="cls-21" d="M587.09,276s0,.28-.34.68a4.69,4.69,0,0,1-1.7,1c-5.44,2.07-16.54-3-22.57-6.36s-23.23-.6-34.81-2.17-16.49-7.85-26.91-10.41-49.24,8.63-51.4-.07,41.44-93.37,45.17-87.46,16.65,6.29,25.7,11,16.82,28,26.88,30.33a16.17,16.17,0,0,1,4,1.52c8,4.28,13.8,15,14,23.84.24,10.21,14.18,18.45,19.29,23.94S587.09,276,587.09,276Z"/><path class="cls-8" d="M587.09,276s0,.28-.34.68c1.81-11.16-8.52-16.46-18-24.32-9.74-8.1-5.64-14.21-7.63-22.47C560,225,555,218.46,551.11,214c8,4.28,13.8,15,14,23.84.24,10.21,14.18,18.45,19.29,23.94S587.09,276,587.09,276Z"/><path class="cls-22" d="M627.91,329.41v3.3a23.41,23.41,0,0,0-3.24.16l-1.89.19-.3-2.8,1.3-.2Z"/><path class="cls-3" d="M586.87,274.48l-2.58,2.35a.65.65,0,0,0,.25,1.09l2.18.7,5,5.52a.6.6,0,0,0,.85,0l.83-.75a.6.6,0,0,0,0-.85l-5-5.52-.49-2.23A.65.65,0,0,0,586.87,274.48Z"/><path class="cls-23" d="M606.71,278c-.66.86-1.52,2-2.41,3.11-.33.42-.67.84-1,1.24-1.38,1.7-2.64,3.11-3,3.18-1,.16-6.56-3-7.39-3s-2.68,1.36-3.18,1.24-3.22-2.64-3.14-3.26,2.52-2.77,3.72-3.1a5.49,5.49,0,0,1,2,.21l.13,0c2.35.52,5.72,1.58,6.24,1.31a7.59,7.59,0,0,0,1.42-2.08c.21-.39.43-.79.64-1.2s.53-1,.77-1.49l.61-1.24a27.68,27.68,0,0,0,2.15,2.69A12.87,12.87,0,0,0,606.71,278Z"/><path class="cls-24" d="M629.43,284.56c0,1.83,0,3.57-.14,5-.44,5.65-.88,10.28-2.81,10.39s-2.31-15.31-2.21-16.25c0-.18,0-.57.05-1.07,0-1.68.07-4.69.1-6a5.87,5.87,0,0,1,0-.61l.36-.22,4.21-2.69s.24,3.65.36,7.8c0,.57,0,1.15,0,1.73S629.43,283.93,629.43,284.56Z"/><path class="cls-14" d="M629.43,284.56a7.18,7.18,0,0,1-4.17,2c-2.64,0,1.23-5.36,2.1-5.49.35,0,1.15-.08,2-.12,0,.57,0,1.15,0,1.73S629.43,283.93,629.43,284.56Z"/><path class="cls-3" d="M629.41,282.66a8,8,0,0,1-4.41.22,2.47,2.47,0,0,1-.68-.25c-1.62-.91-1-3.59.1-6,.12-.29.25-.56.38-.83l4.21-2.69S629.32,277.84,629.41,282.66Z"/><path class="cls-25" d="M620.48,252.17a5.14,5.14,0,0,1-.78,2,9.59,9.59,0,0,1-2,2.37,2.19,2.19,0,0,1-1.49.65c-1.35-.19-3-2.37-3.06-2.78s1.44-.57,1.25-1.78-1-1.44-1.54-1.21a3.1,3.1,0,0,0-1.25,2.66c-.39,0-1.12-1.51-2.48-2.35a3.56,3.56,0,0,0-1.27-.5,3.91,3.91,0,0,0-2.07.18c-.35-4.38,2.29-6.31,4.33-5.54,0,0-.74-1.45-1.82-1.76a3.74,3.74,0,0,1,3.09,2.45,4.55,4.55,0,0,1,3.82-3.33c3.14-.38,3.75,3.75,3.75,3.75a8,8,0,0,0,.37-3.23,9.52,9.52,0,0,1-.12,4.3,2.89,2.89,0,0,1,1.87,2.37c-1.27-1-1.35-.89-1.35-.89A3.2,3.2,0,0,1,620.48,252.17Z"/><path class="cls-26" d="M617.7,256.53c-.25.68-.48,1.33-.59,1.56-.25.58-3.47,3.28-5.77.17a12.14,12.14,0,0,1-2.21-6.54c1.36.84,2.09,2.3,2.48,2.35a3.1,3.1,0,0,1,1.25-2.66c.58-.23,1.35,0,1.54,1.21s-1.28,1.37-1.25,1.78,1.71,2.59,3.06,2.78A2.19,2.19,0,0,0,617.7,256.53Z"/><path class="cls-25" d="M619.3,243.65a1.9,1.9,0,0,0-.23-.45A1.2,1.2,0,0,1,619.3,243.65Z"/><path class="cls-15" d="M630.44,272.58a14,14,0,0,1-1,1.61l-.33.43a11.12,11.12,0,0,1-1.85,1.86,1.13,1.13,0,0,1,0,.12c0,.09,0,.23.07.43.08.45.19,1.15.31,2l.06.42c0,.4.1.81.14,1.24,0,.25.06.5.08.75s0,.28,0,.42c.06.67.09,1.35.1,2v.42a9.39,9.39,0,0,1-.19,2,3.44,3.44,0,0,1-.14.42,1.26,1.26,0,0,1-.22.4,1.2,1.2,0,0,1-.49.34c-1.45.65-5.32.68-9.15.48h0c-3.31-.18-6.59-.54-8.25-.82a3.53,3.53,0,0,1-1.19-.4,2,2,0,0,1-.54-.42,1.6,1.6,0,0,1-.23-.3,3.64,3.64,0,0,1-.36-2.11,12.48,12.48,0,0,1,.34-1.88l0-.11c0-.14.07-.28.11-.42.17-.67.36-1.34.51-2,0-.1,0-.2.07-.3l0-.12c.16-.8.27-1.46.34-2a3.8,3.8,0,0,0,0-.43,4.93,4.93,0,0,0,0-1.65s-.34.84-.76,1.65c-.08.14-.16.29-.25.43-.31.54-.65,1-.92,1a.41.41,0,0,1-.16,0,6.12,6.12,0,0,1-1.17-1l-.43-.43-.9-1c-.29-.32-.58-.66-.85-1l-.35-.43c-.37-.46-.7-.9-1-1.27a4.78,4.78,0,0,1-.43-.71.86.86,0,0,1-.1-.3.66.66,0,0,1,0-.13,11.69,11.69,0,0,1,.65-2c0-.14.11-.28.17-.43.25-.6.54-1.28.87-2l.21-.42c.31-.65.65-1.32,1-2l.24-.42c.39-.69.8-1.36,1.23-2l.3-.42a13.24,13.24,0,0,1,1.7-2,4.93,4.93,0,0,1,.52-.43l.29-.21a12.85,12.85,0,0,1,2.35-1.17,13.81,13.81,0,0,1,5-.92,10.49,10.49,0,0,1,3.9.76,12,12,0,0,1,2.69,1.54l.55.43a15.54,15.54,0,0,1,2,2l.35.42a21.93,21.93,0,0,1,1.41,2c.09.14.18.28.26.42a22.06,22.06,0,0,1,1.07,2l.21.42c.3.64.58,1.3.85,2,0,.14.11.28.16.43.24.63.47,1.29.68,2,0,.13.08.27.13.41v0C630.37,272.33,630.4,272.45,630.44,272.58Z"/><path class="cls-8" d="M623.21,260.16H607.93a4.93,4.93,0,0,1,.52-.43h14.21Z"/><path class="cls-8" d="M625.56,262.56H605.93l.3-.42h19Z"/><path class="cls-8" d="M627.23,265H604.46l.24-.42H627C627.06,264.69,627.15,264.83,627.23,265Z"/><path class="cls-8" d="M628.51,267.38H603.23l.21-.42H628.3Z"/><path class="cls-8" d="M629.52,269.8H602.19c0-.14.11-.28.17-.43h27C629.41,269.51,629.47,269.65,629.52,269.8Z"/><path class="cls-8" d="M630.33,272.21h-28.7a.86.86,0,0,1-.1-.3.66.66,0,0,1,0-.13H630.2c0,.13.08.27.13.41Z"/><path class="cls-8" d="M629.43,274.19l-.33.43H603.36l-.35-.43Z"/><path class="cls-8" d="M605.11,276.6H608c-.08.14-.16.29-.25.43h-2.25Z"/><path class="cls-8" d="M627.34,277H608.73a3.8,3.8,0,0,0,0-.43h18.49C627.28,276.69,627.31,276.83,627.34,277Z"/><path class="cls-8" d="M627.71,279.43H608.29c0-.1,0-.2.07-.3l0-.12h19.26Z"/><path class="cls-8" d="M628,281.84h-20.3c0-.14.07-.28.11-.42h20.15C627.94,281.56,628,281.7,628,281.84Z"/><path class="cls-8" d="M628.07,283.83v.42h-20.8a3,3,0,0,1,0-.42Z"/><path class="cls-8" d="M627.88,286.24a3.44,3.44,0,0,1-.14.42H608.43a2,2,0,0,1-.54-.42Z"/><path class="cls-3" d="M628.32,326.66c-.91.58-7,1.24-7,1.24l-.19-1.11L620,320.13a0,0,0,0,0,0,0l-2.65-15.75L614.65,324l-.78,5.79s-7.52.41-7.52-1.41c0-.22,0-1,0-2.28.22-8,1.06-34.25,1.26-40.17a2.67,2.67,0,0,0,2,1.12l.29.05c3.83.61,14.47,1.47,17.12.29.12,1,.23,2.48.33,4.38.42,7.64.72,21.36.86,29.12C628.29,324.37,628.32,326.66,628.32,326.66Z"/><path class="cls-14" d="M620,320.1l-2.65-15.75s.72-6.33,1-7.05,2.21-.16,3-.71c.44,1.05-2.32,2.37-2.54,5.67C618.66,304.64,619.5,314.67,620,320.1Z"/><path class="cls-27" d="M609.14,289.36s-.25,3.59,2.68,5.32"/><g class="cls-13"><line class="cls-28" x1="609.76" y1="294.16" x2="609.73" y2="294.86"/><line class="cls-29" x1="609.66" y1="296.24" x2="608.26" y2="325.99"/><line class="cls-28" x1="608.22" y1="326.68" x2="608.19" y2="327.37"/></g><line class="cls-30" x1="620.03" y1="297.58" x2="622.68" y2="325.89"/><path class="cls-27" d="M622.27,289.93s-.3,3.46,0,4.12,1.59,1.23,1.87,1.37,1.53-1,1.59-1.69.14-3.66.14-3.66A11.79,11.79,0,0,0,622.27,289.93Z"/><path class="cls-14" d="M628.32,326.66c-.91.58-7,1.24-7,1.24l-.19-1.11c1.78-1,5.3-3.24,7.11-5.89C628.29,324.37,628.32,326.66,628.32,326.66Z"/><path class="cls-31" d="M628.68,329.29l-.77.12-5.43.85-.38.06a1.45,1.45,0,0,1-1.67-1.21l0-.12a1.47,1.47,0,0,1,1.21-1.67l6.6-1a1.46,1.46,0,0,1,1.66,1.22l0,.12A1.46,1.46,0,0,1,628.68,329.29Z"/><path class="cls-14" d="M614.65,324l-.78,5.79s-7.52.41-7.52-1.41c0-.22,0-1,0-2.28C608.17,326,612.27,325.51,614.65,324Z"/><path class="cls-31" d="M614.54,330.17v.13a1.46,1.46,0,0,1-1.59,1.31h0l-5.74-.53-.86-.08a1.47,1.47,0,0,1-1.32-1.59l0-.12a1.46,1.46,0,0,1,1.58-1.32l6.65.62A1.45,1.45,0,0,1,614.54,330.17Z"/><path class="cls-14" d="M627.36,291.78a22.84,22.84,0,0,1-17.45-4.67c3.83.61,14.47,1.47,17.12.29C627.15,288.36,627.26,289.88,627.36,291.78Z"/><path class="cls-14" d="M608.36,279.13c.71-3.3.44-4.18.44-4.18s-1.22,3-1.93,3.08c-.33,0-1.5-1.11-2.66-2.42a7,7,0,0,0,3.34-1.66c1.23-1.4,1.1-7.39,1.58-7.43s1.58,11.07-1.49,15.43C607.87,281,608.16,280.05,608.36,279.13Z"/><path class="cls-14" d="M630.44,272.58a12.39,12.39,0,0,1-3.19,3.9s-1.63-8.57-2.12-9.41c-.39-.66.16-1.35,1.06,1.57.69,2.26,2.51,4,4.14,3.55C630.37,272.32,630.4,272.45,630.44,272.58Z"/><path class="cls-14" d="M627.52,287.06a1.2,1.2,0,0,1-.49.34c-1.45.65-5.32.68-9.15.48,2.62-.35,8.89-1.74,10-7.21C628.13,283.22,628.25,286.15,627.52,287.06Z"/><path class="cls-14" d="M620,258.19c-.34.41-.91.59-1.86.37-1.88-.44-4.36.44-5.65.24a3.54,3.54,0,0,1-1.37-.45,13.81,13.81,0,0,1,5-.92A10.49,10.49,0,0,1,620,258.19Z"/><path class="cls-3" d="M606.71,278c-.66.86-1.52,2-2.41,3.11a16.45,16.45,0,0,1-4.26-4.25c.76-1.37,1.59-3.05,2-3.93a27.68,27.68,0,0,0,2.15,2.69A12.87,12.87,0,0,0,606.71,278Z"/><path class="cls-14" d="M606.71,278c-.66.86-1.52,2-2.41,3.11-.33.42-.67.84-1,1.24a18.75,18.75,0,0,0-1.85-8.18l.61-1.24a27.68,27.68,0,0,0,2.15,2.69A12.87,12.87,0,0,0,606.71,278Z"/><path class="cls-8" d="M600.68,275.65a7.13,7.13,0,0,1-1.23,2.93c-.33.51-.06,2.79-.37,2.52s-.44-1.38-.85-1.76a50.74,50.74,0,0,0-5.85-1.72c2.35.52,5.72,1.58,6.24,1.31a7.59,7.59,0,0,0,1.42-2.08C600.25,276.46,600.47,276.06,600.68,275.65Z"/><path class="cls-14" d="M619.7,254.16a9.59,9.59,0,0,1-2,2.37,2.19,2.19,0,0,1-1.49.65c-1.35-.19-3-2.37-3.06-2.78s1.44-.57,1.25-1.78-1-1.44-1.54-1.21a3.1,3.1,0,0,0-1.25,2.66c-.39,0-1.12-1.51-2.48-2.35a3.56,3.56,0,0,0-1.27-.5,4.49,4.49,0,0,1,2.12.11c1.24.52,1.28,1,1.28,1a2.58,2.58,0,0,1,2.16-2.16C615.11,249.88,616.44,254.47,619.7,254.16Z"/><path class="cls-32" d="M613.87,339.08H600.73a3.22,3.22,0,0,1-.14-.94,2,2,0,0,1,1.27-2l1.19-.53c1.65-.78,3.42-1.81,3.71-2.41l.26.12a10.42,10.42,0,0,0,1.55.56,3.77,3.77,0,0,0,.89.15c.73,0,2.16-.38,3.06-.49.41-.06.71-.05.79.08a32.14,32.14,0,0,1,.49,4.51C613.84,338.7,613.87,339.08,613.87,339.08Z"/><path class="cls-33" d="M612.9,331.61c-.11.61-.24,1.35-.38,1.94-.65.08-1.58.31-2.33.42a4.23,4.23,0,0,1-.73.07,7.74,7.74,0,0,1-2.44-.71c0-.65.08-1.63.14-2.25l2.25.2Z"/><path class="cls-32" d="M629.62,339.08h-7.93a2.49,2.49,0,0,1-.13-.94,3.36,3.36,0,0,1,.32-1.32c.57-1.27.27-3.33.55-3.72l.35,0a41.86,41.86,0,0,1,5.13-.35l.19,0c.53.18,1.14,3.64,1.4,5.4C629.56,338.59,629.61,338.93,629.62,339.08Z"/><path class="cls-14" d="M613.8,338.14c0,.56.07.94.07.94H600.73a3.22,3.22,0,0,1-.14-.94Z"/><path class="cls-14" d="M629.62,339.08h-7.93a2.49,2.49,0,0,1-.13-.94h7.94C629.56,338.59,629.61,338.93,629.62,339.08Z"/><path class="cls-34" d="M608.57,333.89c-1.22.82-3.49,2.25-4.26,2.25a1.81,1.81,0,0,1-1.26-.52c1.65-.78,3.42-1.81,3.71-2.41l.26.12A10.42,10.42,0,0,0,608.57,333.89Z"/><path class="cls-14" d="M612.9,331.61c-.11.61-.24,1.35-.38,1.94-.65.08-1.58.31-2.33.42l-.78-2.69Z"/><path class="cls-14" d="M627.91,329.41v3.3a23.41,23.41,0,0,0-3.24.16l-.89-2.81Z"/><path class="cls-35" d="M179.79,276s-2.41-8.72,2.69-14.21,19-13.73,19.29-23.94,7.93-23,18-25.36,17.82-25.67,26.88-30.33,22-5.06,25.7-11,47.33,78.77,45.17,87.46-41-2.48-51.4.07-15.33,8.83-26.9,10.41-28.78-1.23-34.81,2.17-17.14,8.43-22.57,6.36C179.64,276.78,179.79,276,179.79,276Z"/><path class="cls-3" d="M181.9,277.61l-2.46-2.47a.64.64,0,0,0-1.08.28l-.6,2.21-5.3,5.27a.61.61,0,0,0,0,.85l.79.8a.61.61,0,0,0,.85,0l5.3-5.27,2.21-.59A.64.64,0,0,0,181.9,277.61Z"/><path class="cls-36" d="M156.33,251.32s-.06,1-.23,2.23a12.46,12.46,0,0,1-1.32,4.68l-.08.11c-1.06,1.4-3.08,1.05-4.11-.69.61-.75.87-1.71.47-2.09-.85-.8-.62-3.06.59-2.79s1.4,3.53,1.84,3.45S155.58,253.32,156.33,251.32Z"/><path class="cls-3" d="M156.66,249.93a4.54,4.54,0,0,1-.33,1.39c-.12.33-.27.68-.43,1-.85,1.82-2.12,3.81-2.41,3.87-.44.08-.63-3.17-1.84-3.45s-1.44,2-.59,2.79c.4.38.14,1.34-.47,2.09a2.08,2.08,0,0,1-2.77.74c-2-1.24-2.39-9-2.37-9.61a4,4,0,0,1,.13-1.18,4.31,4.31,0,0,1,2.63-3C151.21,243.3,156.66,243.58,156.66,249.93Z"/><path class="cls-37" d="M172.43,282.33a1.69,1.69,0,0,1-.05.24c-.09.35-.2.59-.33.64a8.4,8.4,0,0,1-1.59-.13c-1.21-.16-3-.44-4.59-.75a23.1,23.1,0,0,1-4.39-1.11,8.69,8.69,0,0,1-2.11-2.53l-.61-1c-1-1.6-1.82-3.21-2-3.65l-.06-.11v.11a15.73,15.73,0,0,1-.71,3.65c-.12.33-.25.66-.4,1a7.37,7.37,0,0,1-.46.83,3.23,3.23,0,0,0-.07,2.81c0,.13.09.25.14.37h0c.08.2.17.41.26.61.15.35.32.7.48,1a4.62,4.62,0,0,1,.76,2.38.51.51,0,0,1-.16.23,2.59,2.59,0,0,1-.23.19,8.18,8.18,0,0,1-1.56.79c-3.91,1.63-12.66,3.5-16.46,0a1.57,1.57,0,0,1-.19-.18l0,0a1.07,1.07,0,0,1-.34-.76,2.4,2.4,0,0,1,.49-1.18,25.08,25.08,0,0,0,1.62-2.46,8.2,8.2,0,0,0,.44-1,7.52,7.52,0,0,0,.43-1.77c.08-.63.14-1.26.19-1.87,0-.33.05-.66.06-1,.08-1.27.09-2.49.08-3.65,0-.33,0-.65,0-1,0-1.29-.08-2.51-.13-3.64,0-.34,0-.66,0-1a28.7,28.7,0,0,1,.07-3.65,7.44,7.44,0,0,1,.15-1,6.05,6.05,0,0,1,1.95-3.65l.12-.11c.39-.32.77-.61,1.12-.87s.8-.54,1.15-.76c2.36-1.42,3.56-1.22,3.56-1.22s.73,0,1.81.24a21,21,0,0,1,3.84,1l.5.21c.36.15.71.32,1.05.5s.47.26.69.4.55.37.82.58a6.77,6.77,0,0,1,1.66,1.84c.33.54.66,1.15,1,1.81.16.31.32.64.48,1,.54,1.16,1.06,2.41,1.55,3.65.13.32.26.65.38,1,.51,1.31,1,2.57,1.33,3.64.12.35.23.68.34,1l.7,2.15c.13.41,1,.8,2.06,1.15.35.13.73.24,1.12.35.75.21,1.53.41,2.22.59.52.14,1,.27,1.35.39s.63.23.68.33a.52.52,0,0,1,.07.15A9.7,9.7,0,0,1,172.43,282.33Z"/><g class="cls-13"><path class="cls-2" d="M156.06,259.43c.3.16.59.34.86.52H143.61l.68-.52h11.77m.06-.23H144.21c-.35.26-.73.55-1.12.87l-.12.11h14.66a10.29,10.29,0,0,0-1.51-1Z"/><path class="cls-2" d="M160.14,264.06l.25.52H141.13c0-.19.05-.36.08-.52h18.93m.14-.23H141a7.44,7.44,0,0,0-.15,1h19.89c-.16-.34-.32-.67-.48-1Z"/><path class="cls-2" d="M162.15,268.69l.21.52H141.05c0-.17,0-.34,0-.52h21.11m.16-.23H140.8c0,.32,0,.64,0,1h21.86c-.12-.33-.25-.66-.38-1Z"/><path class="cls-2" d="M163.86,273.31l.12.37.05.15H141.22c0-.17,0-.34,0-.52h22.66m.16-.23H141c0,.33,0,.65,0,1h23.37c-.11-.3-.22-.63-.34-1Z"/><path class="cls-2" d="M155.61,277.94c-.07.19-.14.36-.21.52H141.1l0-.52h14.48m.34-.23h-15c0,.32,0,.65-.06,1h14.7c.15-.32.28-.65.4-1Z"/><path class="cls-2" d="M168.21,277.94l1.74.47.19,0H159.5l-.33-.52h9m0-.23h-9.48l.61,1h12.44c-.35-.12-.83-.25-1.35-.39-.69-.18-1.47-.38-2.22-.59Z"/><path class="cls-2" d="M154.86,282.57s0,.09,0,.13l0,.09,0,0,.1.27h-14.9c.08-.18.16-.35.23-.52h14.47m.16-.24H140.23a8.2,8.2,0,0,1-.44,1h15.63c-.09-.2-.18-.41-.26-.61h0c0-.12-.09-.24-.14-.37Z"/><path class="cls-2" d="M172.14,282.57a2.13,2.13,0,0,1-.15.41h-.09c-.22,0-.7-.05-1.41-.14s-1.24-.17-1.94-.28h3.59M172,283h0m.44-.65h-6.56c1.63.31,3.38.59,4.59.75a13.81,13.81,0,0,0,1.44.14h.15c.13,0,.24-.29.33-.64a1.69,1.69,0,0,0,.05-.24Z"/><path class="cls-2" d="M155.76,287.19a9.43,9.43,0,0,1-1.09.52H138.34l-.12-.11-.16.16.12-.2a1,1,0,0,1-.23-.37h17.81m.74-.23H137.68a1.07,1.07,0,0,0,.34.76l0,0a1.57,1.57,0,0,0,.19.18h16.46a8.18,8.18,0,0,0,1.56-.79,2.59,2.59,0,0,0,.23-.19Z"/></g><path class="cls-3" d="M157.93,330.29a2.17,2.17,0,0,1-.24.51c-1.09,1.89-4.1,2.08-5.21,1.72a.84.84,0,0,1-.33-.16c-.67-.58-1.24-5.37-4.8-32.55V300c-.07,3.86-.87,10.72-1.73,17-.94,7-1.93,13.29-2.06,14.28a1.65,1.65,0,0,1-.42.87,3.4,3.4,0,0,1-5-.39,4.14,4.14,0,0,1-.34-.48,181.48,181.48,0,0,0-.13-29.58,54.32,54.32,0,0,1-.25-8.77,38.93,38.93,0,0,1,.63-5.26c3.76,3.82,13,1.76,16.88.09a7.8,7.8,0,0,0,1.33-.7C157.34,291.51,156.93,304.41,157.93,330.29Z"/><path class="cls-14" d="M155.07,258.7c-6.39.2-8.21,10.13-8.21,10.13l-1.5-10.39c2.36-1.42,3.56-1.22,3.56-1.22A21.32,21.32,0,0,1,155.07,258.7Z"/><path class="cls-32" d="M165.23,339H152.51a13.69,13.69,0,0,1-.09-1.54c0-.21,0-.45,0-.68,0-1.51,0-3.29.07-4.25a3.85,3.85,0,0,0,1.23.15,5.51,5.51,0,0,0,3.14-.94,3,3,0,0,0,.85-.93,8.56,8.56,0,0,0,3.89,3.64c1.33.73,2.57,1.21,3.09,1.58a1.91,1.91,0,0,1,.72,1.43A4.39,4.39,0,0,1,165.23,339Z"/><path class="cls-32" d="M143.3,337.45c0,1-.11,1.54-.11,1.54h-7.26c.09-.52.2-1,.32-1.54a36.65,36.65,0,0,1,1.9-5.6,3.47,3.47,0,0,0,3.71,1.16,2.66,2.66,0,0,0,1.28-.77A36.63,36.63,0,0,1,143.3,337.45Z"/><path class="cls-38" d="M179.22,280.64c-.14.8-3,3.31-3.86,3.06a2.62,2.62,0,0,1-.43-.18,5.07,5.07,0,0,0-2.55-.95,10.15,10.15,0,0,0,.18-3.4l.56-.26A7.71,7.71,0,0,1,176,278C176.88,278.17,179.35,279.84,179.22,280.64Z"/><path class="cls-14" d="M156.66,286.73a1,1,0,0,1-.39.42c-2.29,1.63-13.89,5-18.21.61l0,0c-.57-.59-.35-1.18.15-1.94a7.94,7.94,0,0,0,3.7,1.37c3.86.63,10.72-.42,14-2.8A4.62,4.62,0,0,1,156.66,286.73Z"/><path class="cls-14" d="M172.38,282.57c-.09.35-.2.59-.33.64a8.4,8.4,0,0,1-1.59-.13,8.64,8.64,0,0,0,0-4.78,6,6,0,0,1,2,.72.52.52,0,0,1,.07.15A10.15,10.15,0,0,1,172.38,282.57Z"/><path class="cls-14" d="M155.16,282.7c-1.48-1.44-.84-2.58,0-5.44s-.84-4.08-1.11-7.27,0-5,2-7.11a13.36,13.36,0,0,0,.57,11.07,12.87,12.87,0,0,1-1.57,5.57A3.5,3.5,0,0,0,155.16,282.7Z"/><path class="cls-14" d="M155.9,252.35c-.85,1.82-2.12,3.81-2.41,3.87-.44.08-.63-3.17-1.84-3.45s-1.44,2-.59,2.79c.4.38.14,1.34-.47,2.09a2.08,2.08,0,0,1-2.77.74c-2-1.24-2.39-9-2.37-9.61a4,4,0,0,1,.13-1.18c1,0,3.26.07,3.8,2.11a9.85,9.85,0,0,1,.48,3.29,2,2,0,0,1,2.45-1.89C153.44,251.34,154.69,252.12,155.9,252.35Z"/><path class="cls-3" d="M147.64,249.62s-.82-1.73-3.47-1.24-3.84,3.89-2.64,9.38c0-4.87.74-6,.74-6s-1.11,3,.33,9.67,2.28,13.17-1.32,16c7.15-4,7.56-8.8,7.15-14.58S149.3,252,147.64,249.62Z"/><path class="cls-14" d="M151.94,255.51a4.73,4.73,0,0,0,2.84,2.72l-.08.11-.13.15a21,21,0,0,0-3.84-1c.51-.72.7-1.55.33-1.9-.85-.8-.62-3.06.59-2.79s1.4,3.53,1.84,3.45,2.09-2.9,2.84-4.9c0,0-.06,1-.23,2.23a13.1,13.1,0,0,1-1.95,2.83c-.91.78-1.26-.19-1.51-.79S152,255,151.94,255.51Z"/><path class="cls-39" d="M139.51,292.92s-.2,3.74.27,4.74a4.71,4.71,0,0,0,1.95,1.71s1.83-.77,2.31-1.87a20.79,20.79,0,0,0,.42-4.86S140.8,291.69,139.51,292.92Z"/><path class="cls-27" d="M155.16,289.93a5.35,5.35,0,0,1-2.49,4.62"/><line class="cls-27" x1="154.53" y1="292.58" x2="156.66" y2="329.63"/><path class="cls-14" d="M147.35,300v0c-.07,3.86-.87,10.72-1.73,17-.13-7.38-1.17-16.54-.83-18A3.66,3.66,0,0,0,147.35,300Z"/><line class="cls-27" x1="145.36" y1="300.97" x2="142.31" y2="331.2"/><path class="cls-14" d="M154.94,287.85c-1.81,1.77-7.39,6.16-17.51,5.17a38.93,38.93,0,0,1,.63-5.26C141.82,291.58,151.07,289.52,154.94,287.85Z"/><path class="cls-14" d="M136.25,337.45h7.05c0,1-.11,1.54-.11,1.54h-7.26C136,338.47,136.13,338,136.25,337.45Z"/><path class="cls-14" d="M165.23,339H152.5c-.05-.35-.07-.9-.09-1.54h13A4.52,4.52,0,0,1,165.23,339Z"/><path class="cls-8" d="M161.59,334.44h0c-2.28,1.11-3.93-1.19-4.73-2.72a3,3,0,0,0,.85-.93A8.56,8.56,0,0,0,161.59,334.44Z"/><path class="cls-14" d="M141.86,333c-.24,3.37-1.41,3.5-2,3.15s-.18-2.48,0-3.17A3.62,3.62,0,0,0,141.86,333Z"/><path class="cls-14" d="M152.41,336.77c0-1.51,0-3.29.07-4.25a3.85,3.85,0,0,0,1.23.15C153.86,333.76,154,336.25,152.41,336.77Z"/><path class="cls-14" d="M172.38,282.57a10.15,10.15,0,0,0,.18-3.4l.56-.26a9.06,9.06,0,0,1,1.81,4.61A5.07,5.07,0,0,0,172.38,282.57Z"/><path class="cls-8" d="M167.12,277.36c-2,.2-3.36,2.3-3.53,1.88s.9-1.53.77-2.19-3.21-8.59-4.9-12.47a34.08,34.08,0,0,0-2.65-5c.28.18.55.37.82.58a6.77,6.77,0,0,1,1.66,1.84c.33.54.66,1.15,1,1.81.16.31.32.64.48,1,.54,1.16,1.06,2.41,1.55,3.65.13.32.26.65.38,1,.51,1.31,1,2.57,1.33,3.64.12.35.23.68.34,1l.7,2.15C165.19,276.62,166,277,167.12,277.36Z"/><path class="cls-3" d="M650.38,341c-.66-.49-21.48-56.67,2.48-88.72a188.7,188.7,0,0,0-1.49,41.14l-3.14,3.14,3.47,1S654,329,655.17,332.63c-2.55-23.48,3.76-37.2,3.76-37.2s-1.12,16.67,1,22.79l-1.65,2.22,1.65-.34s-1.15,10.08,0,13.11c0,0,13.39-40,7.11-57.56,8.26,12.84,5.95,34.27,5.95,34.27l-2.15.85,1.32,1s-3.47,22.86-11.4,29.3"/><path class="cls-11" d="M510.11,334.41s-18.55-1.68-26,3.53c3.53-5,17.58-7.33,17.58-7.33l1,.78v-.78a19.7,19.7,0,0,1,5.89-1.69c-16.91-3.35-25-.13-25-.13a25.36,25.36,0,0,1,8.29-4.08,20.12,20.12,0,0,1,8.42-.92l2.05,1.26v-1.36l18,5.28"/><path class="cls-40" d="M581.54,335.42s-2-12.56,8.26-21.26C589.69,324.29,586.85,333,581.54,335.42Z"/><path class="cls-15" d="M512.5,327.15l-2,4.87c-1.35-4.91-4.53-5.86-6.12-6a4.43,4.43,0,0,0-.95,0l.75-2.4-2.32.4s-2.64-6.34-14.29-14a23.57,23.57,0,0,1,21,9.95A28.52,28.52,0,0,1,512.5,327.15Z"/><g class="cls-13"><path class="cls-2" d="M487.55,310a48.81,48.81,0,0,1,7.44,2.57,45.07,45.07,0,0,1,6.94,3.74,33,33,0,0,1,6,5.16,23.55,23.55,0,0,1,4.07,6.79.23.23,0,0,1-.13.3.24.24,0,0,1-.3-.13h0a23.52,23.52,0,0,0-3.9-6.71,33.24,33.24,0,0,0-5.84-5.2,45,45,0,0,0-6.85-3.82A47.75,47.75,0,0,0,487.55,310Z"/></g><path class="cls-14" d="M512.5,327.15l-2,4.87c-1.35-4.91-4.53-5.86-6.12-6a9.49,9.49,0,0,0,4.19-6.08A28.52,28.52,0,0,1,512.5,327.15Z"/><path class="cls-41" d="M589.8,303.8c-19.17,15.75-24.13,23.58-24.13,23.58l-3.41-1.49s0,.11,0,.29c0,.85.08,3.33,0,4.16s-6.91,4.39-10.8,6.43l-2.64,1.37-3.2-3.2.33-.63,1.66-3.23a79.48,79.48,0,0,1,11.85-12.86C566.91,311.69,577.43,304.9,589.8,303.8Z"/><g class="cls-13"><path class="cls-2" d="M547.56,336.94a112.1,112.1,0,0,1,8.5-10.8,103.48,103.48,0,0,1,9.74-9.68,67.84,67.84,0,0,1,11.16-8,39.68,39.68,0,0,1,12.84-4.69A39.54,39.54,0,0,0,577,308.59a68.28,68.28,0,0,0-11.07,8,104.15,104.15,0,0,0-9.63,9.74,113.76,113.76,0,0,0-8.38,10.83h0a.23.23,0,1,1-.38-.26Z"/></g><path class="cls-14" d="M562.26,330.34c-.08.71-6.91,4.39-10.8,6.43a51,51,0,0,1-5.51-2.46l1.66-3.23a79.48,79.48,0,0,1,11.85-12.86,24.56,24.56,0,0,0,2.81,8C562.29,327,562.35,329.51,562.26,330.34Z"/><path class="cls-12" d="M577.74,293.45c-13.72,11.41-20,20.95-22.58,25.82a24.75,24.75,0,0,0-1.6,3.48l-3-1.1,1.22,2.75-4.36,8.81h0l-1.91,3.86V321.71c.59-1.13,1.39-2.61,2.42-4.31A70.6,70.6,0,0,1,556,306.48a52.67,52.67,0,0,1,5.14-5A34.66,34.66,0,0,1,577.74,293.45Z"/><g class="cls-13"><path class="cls-2" d="M545.31,327.82a64.69,64.69,0,0,1,5.39-10.91,66.33,66.33,0,0,1,7.27-9.72,52.61,52.61,0,0,1,9.07-8.06l2.52-1.7,2.66-1.46c.44-.24.88-.5,1.33-.73l1.4-.6,2.79-1.19L575,294.67l-1.39.61c-.45.23-.88.49-1.33.74l-2.64,1.48-2.49,1.73a52.35,52.35,0,0,0-9,8.11,65.57,65.57,0,0,0-7.14,9.75A64.47,64.47,0,0,0,545.75,328h0a.23.23,0,0,1-.44-.16Z"/></g><path class="cls-14" d="M553.56,322.75l-3-1.1,1.22,2.75-4.36,8.81h0l-1.91.28V321.71c.59-1.13,1.39-2.61,2.42-4.31a8.89,8.89,0,0,0,7.21,1.87A24.75,24.75,0,0,0,553.56,322.75Z"/><path class="cls-16" d="M595.19,339.08H545.53v-7a6.14,6.14,0,0,1,2.74-2.7,6.65,6.65,0,0,1,2.23-.68,4.55,4.55,0,0,1,5,2.55s.91-2.65,4.62-3,5.81,5.32,5.95,5.65c0-.28-.28-3.41,2.48-3.61S571.4,334,571.4,334s2.32-2.51,5.29-2.35a4,4,0,0,1,3.63,3.06,4.89,4.89,0,0,1,5.29-1.62C589.25,333.93,589.66,339.08,595.19,339.08Z"/><path class="cls-14" d="M579.68,339.08H545.53v-7a6.14,6.14,0,0,1,2.74-2.7c1.49.11,4.11.59,5.2,2.61a14.22,14.22,0,0,1,1.69,5.62s3.33-4.77,6-3.95,4.06,3.95,4.06,3.95,2.8-3,5.16-2C571.55,336.17,575.78,337.69,579.68,339.08Z"/><path class="cls-3" d="M481.66,341c-.18-.14-6-15.93.7-24.95a53.17,53.17,0,0,0-.42,11.57l-.88.89,1,.27s.65,8.84,1,9.86c-.72-6.6,1.06-10.46,1.06-10.46s-.32,4.69.29,6.41l-.47.62.47-.09a13.33,13.33,0,0,0,0,3.68s3.76-11.24,2-16.18c2.32,3.61,1.67,9.63,1.67,9.63l-.61.24.38.27s-1,6.43-3.21,8.24"/><path class="cls-11" d="M255,335.9S225.7,316.16,208.56,318c10.43-5.08,35.89,3.89,35.89,3.89l1,2.25.72-1.29a37,37,0,0,1,11.32,2.57c-25-21-41.37-23.05-41.37-23.05a47.71,47.71,0,0,1,17.49.8c10,2.21,14.81,6.16,14.81,6.16l2.26,4,1.25-2.24,25,25.19"/><path class="cls-40" d="M232.16,338.22S219.8,335.58,212,326.33C225.26,327.65,231,332.44,232.16,338.22Z"/><path class="cls-41" d="M273.5,282.56c-1.06,24.79,1.46,33.7,1.46,33.7l-3.39,1.55.23.19c.65.55,2.54,2.16,3.09,2.78s-1.34,8.08-2.41,12.34c-.44,1.7-.75,2.88-.75,2.88l-4.52.24-.25-.66-1.29-3.39A79.2,79.2,0,0,1,264,314.78C264.1,304.88,266.07,292.51,273.5,282.56Z"/><g class="cls-13"><path class="cls-2" d="M270,336.14a111.16,111.16,0,0,1-2.37-13.54,103,103,0,0,1-.72-13.71,68,68,0,0,1,1.52-13.64,39.45,39.45,0,0,1,5.07-12.68,39.24,39.24,0,0,0-5,12.71,67.59,67.59,0,0,0-1.39,13.61,102.38,102.38,0,0,0,.82,13.67A111.44,111.44,0,0,0,270.45,336h0a.24.24,0,0,1-.17.28.23.23,0,0,1-.28-.17Z"/></g><path class="cls-14" d="M274.89,320.78c.48.54-1.34,8.08-2.41,12.34a51.77,51.77,0,0,1-5.52,2.46l-1.29-3.39A79.2,79.2,0,0,1,264,314.78a24.42,24.42,0,0,0,7.8,3.22C272.45,318.55,274.34,320.16,274.89,320.78Z"/><path class="cls-12" d="M291,299.64c-6.12,10.68-7.88,18.37-8.38,22.14a17.94,17.94,0,0,0-.2,2.64h-2.19l1.45,1.49-.69,6.75h0l-.3,2.95L277,325.68c.11-.87.27-2,.53-3.37a48.25,48.25,0,0,1,2.58-9,36.76,36.76,0,0,1,2.12-4.45A23.9,23.9,0,0,1,291,299.64Z"/><g class="cls-13"><path class="cls-2" d="M278.22,329.69a44.19,44.19,0,0,1,.88-8.37,45.9,45.9,0,0,1,2.37-8.05,36.19,36.19,0,0,1,3.95-7.39l1.22-1.71,1.37-1.58c.23-.26.45-.53.69-.79l.76-.72,1.52-1.44-1.5,1.46-.75.73c-.23.26-.45.53-.68.8l-1.34,1.6-1.2,1.71a36.17,36.17,0,0,0-3.82,7.42,44.74,44.74,0,0,0-2.25,8,43.53,43.53,0,0,0-.75,8.28v0a.24.24,0,0,1-.23.23.23.23,0,0,1-.24-.23Z"/></g><path class="cls-14" d="M282.4,324.42h-2.19l1.45,1.49-.69,6.75h0l-1.17.64L277,325.68c.11-.87.27-2,.53-3.37a6.15,6.15,0,0,0,5.11-.53A17.94,17.94,0,0,0,282.4,324.42Z"/><path class="cls-16" d="M312,339l-12.42,0-54,.05-16,0s1.32-4.33,7.6-6.31,8.1,2.13,8.1,2.13-.34-8.22,7.1-11,10.74,6.59,10.74,6.59,1.49-4.64,9.42-5,7.11,5.8,7.11,5.8a14.49,14.49,0,0,1,12.55-3.87c8.1,1.14,8.93,7.56,8.93,7.56S308.2,332.82,312,339Z"/><path class="cls-14" d="M299.58,339l-54,.05c2.79-2.49,7.35-5.71,12.21-5.76,7.93-.09,9.21,2.78,9.21,2.78s4.89-5.18,8.74-4.3,4,5,4,5S292.1,333.94,299.58,339Z"/><path class="cls-3" d="M320.92,342.45s-9-15.88-6.28-31.31a53.26,53.26,0,0,0,9.09,20.07l-2.64,2.09h2.64L329.35,344l-7.61-1.56v.73Z"/></g></g></svg>